<?xml version="1.0" encoding="UTF-8"?><svg id="Layer_1" xmlns="http://www.w3.org/2000/svg" viewBox="0 0 160 190"><defs><style>.cls-1{fill:#fff;}</style></defs><path class="cls-1" d="M3.7,108.17v-5.44H31.19v5.44h-10.61v32.21h-6.16v-32.21H3.7Zm45.29,18.8h-8.85v13.41h-6.1v-37.66h14.29c8.5,0,12.75,4,12.75,11.98,0,5.35-2.05,8.98-6.16,10.88l6.21,14.79h-6.71l-5.44-13.41Zm5.83-12.2c0-4.51-2.16-6.76-6.49-6.76h-8.19v13.69h8.3c2.2,0,3.81-.63,4.84-1.9,1.03-1.26,1.54-2.94,1.54-5.03Zm7.75,25.62l9.29-37.66h12.15l9.34,37.66h-6.16l-2.03-8.08h-14.46l-2.03,8.08h-6.1Zm14.02-32.54l-4.67,19.08h12.04l-4.62-19.08h-2.75Zm19.95,32.54v-37.66h6.1v37.66h-6.1Zm33.7,0h-21.11v-37.66h6.1v32.21h15.01v5.44Zm13.85-32.93c-4.65,0-6.98,1.63-6.98,4.89,0,1.65,.55,2.84,1.65,3.57,1.1,.73,3.54,1.61,7.31,2.64,1.87,.51,3.45,1.06,4.75,1.65,1.3,.59,2.35,1.28,3.16,2.09s1.39,1.77,1.76,2.89c.37,1.12,.55,2.45,.55,3.99,0,4-1.13,6.96-3.38,8.91s-5.32,2.91-9.21,2.91c-1.58,0-3.22-.09-4.92-.27-1.7-.18-3.51-.46-5.41-.83l-1.98-.38,.6-4.89c4.95,.66,8.72,.99,11.32,.99,4.54,0,6.82-2.02,6.82-6.05,0-1.58-.51-2.75-1.54-3.52-1.03-.73-3.33-1.56-6.93-2.47-1.8-.44-3.36-.95-4.7-1.54-1.34-.59-2.45-1.3-3.33-2.14-.88-.84-1.54-1.88-1.98-3.11-.44-1.23-.66-2.68-.66-4.37,0-3.44,1.1-6.03,3.3-7.75,2.2-1.72,5.28-2.58,9.23-2.58,2.82,0,6.16,.33,10,.99l1.92,.33-.49,4.95c-2.57-.29-4.75-.51-6.57-.66-1.81-.15-3.25-.22-4.32-.22ZM11.4,150.31h6.43l5.39,32.38h1.15l7.15-32.27h7.15l7.15,32.27h1.21l5.39-32.38h6.43l-7.42,37.66h-9.84l-6.49-30.18-6.43,30.18h-9.89l-7.37-37.66Zm53.1,37.66v-37.66h23.75v5.33h-17.65v10.67h14.35v5.28h-14.35v10.99h17.65v5.39h-23.75Zm41.45-32.93c-4.65,0-6.98,1.63-6.98,4.89,0,1.65,.55,2.84,1.65,3.57,1.1,.73,3.54,1.61,7.31,2.64,1.87,.51,3.45,1.06,4.75,1.65,1.3,.59,2.35,1.28,3.16,2.09s1.39,1.77,1.76,2.89c.37,1.12,.55,2.45,.55,3.99,0,4-1.13,6.96-3.38,8.91s-5.32,2.91-9.21,2.91c-1.58,0-3.22-.09-4.92-.27-1.7-.18-3.51-.46-5.41-.83l-1.98-.38,.6-4.89c4.95,.66,8.72,.99,11.32,.99,4.54,0,6.82-2.02,6.82-6.05,0-1.58-.51-2.75-1.54-3.52-1.03-.73-3.33-1.56-6.93-2.47-1.8-.44-3.36-.95-4.7-1.54-1.34-.59-2.45-1.3-3.33-2.14-.88-.84-1.54-1.88-1.98-3.11-.44-1.23-.66-2.68-.66-4.37,0-3.44,1.1-6.03,3.3-7.75,2.2-1.72,5.28-2.58,9.23-2.58,2.82,0,6.16,.33,10,.99l1.92,.33-.49,4.95c-2.57-.29-4.75-.51-6.57-.66-1.81-.15-3.25-.22-4.32-.22Zm15.17,.71v-5.44h27.49v5.44h-10.61v32.21h-6.16v-32.21h-10.72ZM47.58,39.06l1.09-1.84,1.72,1.84h19.07l2.7-4.55h-31.13c-.47,1.48-.85,3-1.15,4.55h7.7Zm25.29-5.76l2.84-4.79H43.48c-.78,1.55-1.46,3.15-2.04,4.79h31.44Zm-29.7,13.23h-4.03c0,.09,0,.18,0,.27,0,1.27,.08,2.54,.19,3.79h1.44l2.4-4.07Zm3.99-24.03c-1.18,1.59-2.25,3.28-3.2,5.04h32.32l2.99-5.04H47.17Zm10.17,24.03l3.8,4.07h1.48l2.41-4.07h-7.69Zm-1.58-1.7h10.28l2.56-4.31h-16.85l4.02,4.31ZM98.23,10.24c-5.49-2.75-11.68-4.3-18.23-4.3s-12.74,1.56-18.23,4.3h36.45Zm-50.5,11.53h31.98l.29-.49,.29,.49h31.98c-1.48-1.9-3.11-3.67-4.89-5.28H52.62c-1.78,1.61-3.41,3.38-4.89,5.28Zm73.13,25.85v-.82c0-.09,0-.18,0-.27h-.93l.93,1.1Zm-33.02-13.11l2.7,4.55h20.39l1.33-1.56,1.33,1.56h6.54c-.3-1.55-.68-3.07-1.15-4.55h-31.13ZM61.3,10.48c-2.93,1.51-5.65,3.37-8.12,5.52h53.64c-2.47-2.15-5.19-4.01-8.12-5.52H61.3Zm-21.76,42.05s0,.09,.01,.13l.08-.13h-.09Zm41.18-30.03l2.98,5.04h32.32c-.94-1.76-2.01-3.44-3.2-5.04h-32.11Zm17.6,29.71l.6,1.01,.86-1.01h-1.45Zm11.37-11.69h-18.29l2.55,4.31h12.08l3.66-4.31Zm-5.1,6.01h-9.64l2.41,4.07h3.77l3.45-4.07Zm-60.42-1.7l2.55-4.31h-7.1c-.22,1.41-.36,2.85-.43,4.31h4.99Zm70.64-4.31l3.67,4.31h2.33c-.07-1.46-.21-2.9-.43-4.31h-5.56Zm-30.54-12.01l2.84,4.79h31.44c-.58-1.65-1.26-3.25-2.04-4.79h-32.24Zm-43.22,30.66c1.69,5.31,4.44,10.17,8.02,14.29l10.54-17.77-10.12-10.86-8.43,14.34Zm71.19-14.57l-10.86,12.78,9.53,16.08c4.72-5.41,8.02-12.09,9.3-19.47l-7.97-9.39Zm-13.97,16.49l-1.24-2.11-1.24-2.06-15.8-26.66-14.7,24.78-1.19,2.06-1.24,2.06-10.44,17.68c5.08,4.67,11.36,8.06,18.28,9.71,.82,.18,1.69,.37,2.52,.5,.92,.14,1.83,.27,2.75,.32,1.33,.18,2.66,.23,4.03,.23,2.93,0,5.77-.32,8.57-.92,.87-.18,1.65-.37,2.52-.64h.05c.82-.23,1.65-.46,2.43-.78,5.27-1.83,10.03-4.72,14.02-8.43l-9.3-15.76Z"/></svg>